<?xml version="1.0" encoding="utf-8"?>
<!-- Generator: Adobe Illustrator 28.0.0, SVG Export Plug-In . SVG Version: 6.00 Build 0)  -->
<svg version="1.1" id="Layer_1" xmlns="http://www.w3.org/2000/svg" xmlns:xlink="http://www.w3.org/1999/xlink" x="0px" y="0px"
	 viewBox="0 0 1080 1080" style="enable-background:new 0 0 1080 1080;" xml:space="preserve">
<style type="text/css">
	.st0{fill:#E61D36;}
	.st1{fill:#FFFFFF;}
</style>
<path class="st0" d="M542.2,184.8L223,293.9v176.5c0,171.8,139.8,396.6,319.2,424l0,0C715,854.7,857,642.2,857,470.4V293.9
	L542.2,184.8z"/>
<g>
	<path class="st1" d="M607.8,548.8c-1.5-2.3-4.6-3-7-1.5l-34.5,22.2c-2.3,1.5-3,4.6-1.5,7c1,1.5,2.6,2.3,4.2,2.3
		c0.9,0,1.9-0.3,2.7-0.8l34.5-22.2C608.6,554.3,609.3,551.2,607.8,548.8z"/>
	<path class="st1" d="M612.6,561.5l-21,13.5c-2.3,1.5-3,4.6-1.5,7c1,1.5,2.6,2.3,4.2,2.3c0.9,0,1.9-0.3,2.7-0.8l21-13.5
		c2.3-1.5,3-4.6,1.5-7C618,560.7,614.9,560,612.6,561.5z"/>
	<path class="st1" d="M444.2,624.1c19.5,0,35.3-15.8,35.3-35.3c0-19.5-15.8-35.3-35.3-35.3c-19.5,0-35.3,15.8-35.3,35.3
		C408.9,608.2,424.7,624.1,444.2,624.1z M444.2,563.5c13.9,0,25.2,11.3,25.2,25.2S458.1,614,444.2,614c-13.9,0-25.2-11.3-25.2-25.2
		S430.3,563.5,444.2,563.5z"/>
	<path class="st1" d="M571.5,639.2c-11.1,0-20.2,9.1-20.2,20.2c0,11.1,9.1,20.2,20.2,20.2s20.2-9.1,20.2-20.2
		C591.7,648.3,582.7,639.2,571.5,639.2z M571.5,669.5c-5.6,0-10.1-4.5-10.1-10.1c0-5.6,4.5-10.1,10.1-10.1s10.1,4.5,10.1,10.1
		C581.6,664.9,577.1,669.5,571.5,669.5z"/>
	<path class="st1" d="M695.7,571.8V561c0-5.4-3.8-9.9-8.8-11.1v-32.4c0-4.8-2.3-9.4-6.2-12.2L655.6,487c-2.7-2-6.2-2.3-9.2-0.8
		c-3,1.5-4.8,4.5-4.8,7.9v20.8c-6.2-2.6-12.8-4.6-19.6-5.8v-9.1c0-25.1-20.4-45.5-45.5-45.5h-1.1v-5.5c0-8.6-7-15.6-15.6-15.6h-4.2
		v-23.4h41.1c3.4,0,6.3-2.2,7.3-5.4c1-3.2-0.2-6.7-2.9-8.6l-20.6-14.4c-2.6-1.8-5.7-2.8-8.9-2.8H515c-5.7,0-10.3,4.6-10.3,10.3v10.5
		c0,5.7,4.6,10.3,10.3,10.3h9.4v23.4h-4.2c-8.6,0-15.6,7-15.6,15.6v5.5h-1.1c-25.1,0-45.5,20.4-45.5,45.5v2.5h-63.7
		c-4.1,0-7.9,1.6-10.7,4.5c-2.9,2.9-4.4,6.7-4.4,10.8v0c0.5,70,7.9,118.8,23.3,153.5v14.1c0,8.3,6.8,15.1,15.1,15.1h45.4h7.5h37.2
		h109h18.3c0.7,0,1.4-0.1,2-0.1c0.6,0.1,1.2,0.1,1.8,0.1h50.4c6.3,0,11.3-5.1,11.3-11.3V581.2C700.8,577.3,698.8,573.8,695.7,571.8z
		 M640.3,618.4H502.8V609c0.1-0.9,0.3-1.8,0.4-2.6c0.8-1.8,2.6-3.1,4.6-3.1h127.4c2.8,0,5,2.3,5,5V618.4z M485.8,685.2v-14.1
		c2.5-5.7,4.8-11.8,6.9-18.3v32.3c0,1.8,0.3,3.5,0.9,5h-8.7C485.5,688.7,485.8,687,485.8,685.2z M627.7,581.2v12H539
		c5.1-31.4,32.5-55.5,65.4-55.5c13.8,0,26.6,4.3,37.2,11.5v0.8c-5,1.2-8.8,5.7-8.8,11.1v10.7C629.7,573.8,627.7,577.3,627.7,581.2z
		 M642.8,561c0-0.7,0.6-1.3,1.3-1.3h2.5h35.3h2.5c0.7,0,1.3,0.6,1.3,1.3v8.8h-42.9V561z M651.6,496.6l23.2,17
		c1.3,0.9,2.1,2.5,2.1,4.1v32.1h-25.2V496.6z M641.5,537.3c-11-6.2-23.7-9.7-37.2-9.7c-38.4,0-70.3,28.5-75.6,65.6h-10.2
		c5.3-42.6,41.7-75.7,85.7-75.7c13.3,0,25.9,3,37.2,8.4V537.3z M515,399.8c-0.1,0-0.2-0.1-0.2-0.2v-10.5c0-0.1,0.1-0.2,0.2-0.2h56.5
		c1.1,0,2.2,0.3,3.1,1l14.3,10h-38.5h-21H515z M545.5,409.9v23.4h-10.9v-23.4H545.5z M514.8,448.9c0-3,2.5-5.5,5.5-5.5h9.2h21h9.2
		c3,0,5.5,2.5,5.5,5.5v5.5h-50.4V448.9z M468.2,499.9c0-19.5,15.9-35.4,35.4-35.4h6.2h60.5h6.2c19.5,0,35.4,15.9,35.4,35.4v7.8
		c-2.5-0.2-5-0.3-7.5-0.3c-49.6,0-90.5,37.6-95.9,85.7h-0.6c-1,0-2,0.1-2.9,0.3c2.6-22,4-47.2,4.2-75.8c0-4.1-1.5-7.9-4.4-10.8
		c-2.9-2.9-6.7-4.5-10.7-4.5h-25.8V499.9z M394.4,512.5H494c1.4,0,2.6,0.5,3.6,1.5c1,1,1.5,2.2,1.5,3.6c-0.2,33.5-2.2,62.4-5.8,87
		c-0.2,0.9-0.4,1.9-0.4,2.9c-3.6,22.8-8.6,41.9-15.3,57.6h-66.5c-14-32.9-21.1-81.2-21.6-147.5c0-1.4,0.5-2.6,1.5-3.6
		C391.8,513,393,512.5,394.4,512.5z M412.7,685.2v-10.1h63v10.1c0,2.8-2.3,5-5,5h-53C414.9,690.3,412.7,688,412.7,685.2z
		 M507.9,690.3c-2.8,0-5-2.3-5-5v-56.7h137.4v56.7c0,2.8-2.3,5-5,5h-60.9H507.9z M690.7,689c0,0.7-0.6,1.3-1.3,1.3h-40
		c0.6-1.6,0.9-3.3,0.9-5v-61.8v-15.1c0-7.5-5.5-13.7-12.6-14.9v-12.2c0-0.7,0.6-1.3,1.3-1.3h50.4c0.7,0,1.3,0.6,1.3,1.3V689z"/>
</g>
</svg>
